HIERARCHY
ROOT Hips
{
  OFFSET 13.6774 106.653 -34.4427
  CHANNELS 6 Xposition Yposition Zposition Zrotation Xrotation Yrotation
  JOINT ToSpine
  {
    OFFSET -2.69724 7.43032 -0.144315
    CHANNELS 3 Zrotation Xrotation Yrotation
    JOINT Spine
    {
      OFFSET -0.0310711 10.7595 1.96963
      CHANNELS 3 Zrotation Xrotation Yrotation
      JOINT Spine1
      {
        OFFSET 19.9056 3.91189 0.764692
        CHANNELS 3 Zrotation Xrotation Yrotation
        JOINT Neck
        {
          OFFSET 25.9749 7.03908 -0.130764
          CHANNELS 3 Zrotation Xrotation Yrotation
          JOINT Head
          {
            OFFSET 9.52751 0.295786 -0.907742
            CHANNELS 3 Zrotation Xrotation Yrotation
            End Site
            {
              OFFSET 16.4037 0.713936 2.7358
            }
          }
        }
        JOINT LeftShoulder
        {
          OFFSET 17.7449 4.33886 11.7777
          CHANNELS 3 Zrotation Xrotation Yrotation
          JOINT LeftArm
          {
            OFFSET 0.911315 1.27913 9.80584
            CHANNELS 3 Zrotation Xrotation Yrotation
            JOINT LeftForeArm
            {
              OFFSET 28.6126 1.18197 -3.53199
              CHANNELS 3 Zrotation Xrotation Yrotation
              JOINT LeftHand
              {
                OFFSET 27.5088 0.0218783 0.327423
                CHANNELS 3 Zrotation Xrotation Yrotation
                End Site
                {
                  OFFSET 18.6038 -0.000155887 0.382096
                }
              }
            }
          }
        }
        JOINT RightShoulder
        {
          OFFSET 17.1009 2.89543 -12.2328
          CHANNELS 3 Zrotation Xrotation Yrotation
          JOINT RightArm
          {
            OFFSET 1.4228 0.178766 -10.211
            CHANNELS 3 Zrotation Xrotation Yrotation
            JOINT RightForeArm
            {
              OFFSET 28.733 1.87905 2.64907
              CHANNELS 3 Zrotation Xrotation Yrotation
              JOINT RightHand
              {
                OFFSET 27.4588 0.290562 -0.101845
                CHANNELS 3 Zrotation Xrotation Yrotation
                End Site
                {
                  OFFSET 17.8396 -0.255518 -0.000602873
                }
              }
            }
          }
        }
      }
    }
  }
  JOINT LeftUpLeg
  {
    OFFSET -5.61296 -2.22332 -10.2353
    CHANNELS 3 Zrotation Xrotation Yrotation
    JOINT LeftLeg
    {
      OFFSET 2.56703 -44.7417 -7.93097
      CHANNELS 3 Zrotation Xrotation Yrotation
      JOINT LeftFoot
      {
        OFFSET 3.16933 -46.5642 -3.96578
        CHANNELS 3 Zrotation Xrotation Yrotation
        JOINT LeftToeBase
        {
          OFFSET 0.346054 -6.02161 12.8035
          CHANNELS 3 Zrotation Xrotation Yrotation
          End Site
          {
            OFFSET 0.134235 -1.35082 5.13018
          }
        }
      }
    }
  }
  JOINT RightUpLeg
  {
    OFFSET -5.7928 -1.72406 10.6446
    CHANNELS 3 Zrotation Xrotation Yrotation
    JOINT RightLeg
    {
      OFFSET -2.57161 -44.7178 -7.85259
      CHANNELS 3 Zrotation Xrotation Yrotation
      JOINT RightFoot
      {
        OFFSET -3.10148 -46.5936 -4.03391
        CHANNELS 3 Zrotation Xrotation Yrotation
        JOINT RightToeBase
        {
          OFFSET -0.0828122 -6.13587 12.8035
          CHANNELS 3 Zrotation Xrotation Yrotation
          End Site
          {
            OFFSET -0.131328 -1.35082 5.13018
          }
        }
      }
    }
  }
}
MOTION
Frames: 8
Frame Time: 0.03333333333333333
0.0000 93.1000 0.0000 70.8714 -23.9496 -6.5844 -70.9885 -0.0547 87.9885 82.7700 67.8653 -1.9842 6.6367 16.8781 3.1535 -118.9471 25.1114 155.2238 -176.3982 70.8633 -154.7657 0.2564 -15.1489 -19.4470 -72.9986 34.7283 -147.1357 9.0666 -2.5866 -96.5362 -0.2247 -0.5994 0.0904 -0.9461 6.6033 24.0948 -134.0745 -21.7454 73.9735 12.1535 8.0713 121.9660 0.3083 -0.4382 0.3130 -50.2637 12.8161 90.9049 -3.8229 39.8391 -10.7503 -0.5902 -17.0689 -1.7232 2.1181 -8.8754 8.5006 -33.8446 -16.7841 86.8489 -1.0253 26.8364 6.8589 -0.3602 12.5080 -1.0327 1.1461 -6.6500 -7.3520 
0.0000 93.1000 0.0000 70.8200 -25.1585 -6.3447 -71.0013 -0.1094 87.9792 83.0576 67.9925 -1.5622 5.7207 17.1991 2.9563 -118.7148 25.5381 155.7677 -175.1482 71.4553 -157.4195 0.5926 -14.6901 -19.8535 -72.8882 35.3941 -148.0341 9.4539 -2.3146 -96.5946 -0.4112 -0.8814 0.4988 -0.8624 6.5830 24.3473 -135.5696 -20.8541 74.3472 13.3183 8.5357 121.8800 0.6889 -0.7387 0.4603 -51.1681 10.8604 91.0358 -3.0287 38.8488 -10.3440 -1.1581 -16.5363 -1.2874 1.5332 -8.6758 8.9211 -33.7506 -16.9819 84.7934 0.0322 28.6439 1.2014 -1.2902 12.1409 -1.0756 1.0986 -4.3123 -8.0037 
0.0000 93.1000 0.0000 72.1549 -26.8461 -5.6580 -71.0013 -0.0345 87.9877 84.4793 68.8167 -4.0136 5.0908 17.7343 3.7131 -117.5269 26.2213 156.2012 -174.7200 72.1973 -157.3223 0.2167 -14.9538 -20.3230 -72.8751 34.8267 -146.9997 9.1508 -2.2524 -97.3590 0.0632 -0.5397 0.1967 -0.9478 6.2942 25.1746 -137.3102 -20.0014 73.8196 13.1199 8.9717 122.8128 0.4619 -0.2872 0.3296 -52.7129 9.5567 92.0380 -2.9958 38.0487 -8.0707 -0.9584 -16.9397 -1.6351 0.9524 -7.0947 7.5577 -32.9291 -17.1228 81.7121 0.9039 33.2394 -1.4673 -3.9019 9.0912 -0.3368 0.0158 -6.1904 -2.6475 
0.0000 93.1000 0.0000 71.9124 -27.9707 -6.4479 -71.0090 -0.0189 88.0180 86.5318 69.6902 -5.4903 4.5693 18.0204 4.0220 -119.5186 26.4264 153.4333 -173.4116 72.1903 -158.1818 0.1740 -15.2859 -20.4791 -72.6943 33.9413 -147.0824 9.2225 -2.4654 -98.3273 0.0325 -0.4580 0.0667 -1.1056 6.3281 26.6809 -138.0054 -19.3842 73.5327 13.6877 9.7503 123.5795 0.7117 -0.2151 0.1617 -53.4333 9.5136 93.2680 -2.6352 36.5798 -7.0053 0.2016 -16.5554 -1.8583 1.0893 -6.6087 8.8287 -31.7719 -17.2870 79.7568 -0.4127 39.0187 -4.7408 -4.7859 5.8906 0.0284 -0.2628 -7.8151 4.3754 
0.0000 93.1000 0.0000 71.9983 -28.7952 -5.8719 -70.9957 0.0083 88.0141 87.4279 70.0693 -7.3619 3.4751 17.9240 5.4820 -116.5849 26.9246 154.5612 -176.4114 72.3547 -155.8121 0.1396 -14.6904 -20.7008 -72.7963 34.6946 -144.8679 9.9285 -1.7411 -99.4299 0.0553 -0.2589 0.3213 -1.0967 6.1478 26.6006 -138.1736 -18.8547 73.4473 14.1079 10.3277 123.6731 0.5464 -0.0725 0.1079 -53.6478 9.1742 93.5231 -2.3703 35.7078 -7.4883 -0.0974 -15.7072 -1.7292 1.3360 -6.7448 10.9744 -32.0517 -16.7278 78.6247 0.7512 42.6817 -4.0321 -4.1932 4.4959 -0.0439 0.0989 -9.7536 2.5758 
0.0000 93.1000 0.0000 73.0763 -29.1557 -5.2301 -70.9878 -0.0866 88.0348 85.2853 70.0604 -5.3767 3.8379 17.7970 5.6690 -116.2111 27.2283 155.6384 -177.0270 72.1900 -156.7603 0.6453 -14.9148 -21.0736 -71.6980 34.7282 -145.1256 9.9468 -2.3739 -99.4146 0.1043 -0.7483 0.7416 -1.1861 6.0404 27.2538 -138.1658 -18.6741 72.3482 14.0460 9.6038 123.6515 0.9408 -0.6374 0.5036 -53.9527 7.9441 93.0016 -2.6041 35.5316 -8.4590 0.1941 -15.6638 -1.1695 1.1993 -7.4054 13.1083 -32.9259 -17.3743 77.2037 0.6860 45.6705 -4.9096 -4.7485 2.9459 -0.1541 0.6907 -10.9242 1.4673 
0.0000 93.1000 0.0000 73.7315 -29.5449 -5.6035 -70.9911 -0.1437 88.0455 84.6470 69.5558 -3.8224 4.4396 17.3688 5.7135 -116.6565 27.9252 155.5936 -175.7505 72.9754 -154.2389 0.9127 -14.7834 -21.7265 -71.1300 35.9450 -144.6839 10.2640 -2.3185 -100.3948 0.0207 -1.0278 1.1164 -1.2707 5.9322 28.3055 -137.1378 -18.9312 72.7042 12.9549 9.2384 124.1276 1.1606 -1.0445 0.5298 -53.8441 8.0260 92.6512 -2.9964 35.8769 -8.0257 0.5456 -15.7058 -0.8434 0.7374 -8.0694 13.0645 -34.3242 -17.2536 75.6838 1.0865 46.2055 -5.1277 -4.9848 3.1500 -0.3883 1.0286 -12.7394 3.6667 
0.0000 93.1000 0.0000 73.5756 -29.2842 -5.6017 -70.9995 0.5890 87.9536 82.1508 69.5067 -0.4238 5.9116 17.3192 5.3463 -118.4904 28.4887 157.0382 -177.7652 72.7068 -154.4012 -2.9204 -14.3569 -21.0714 -70.1960 35.2348 -145.5546 10.8074 -3.0753 -100.2559 0.7599 2.7239 -2.0238 -1.3736 6.2216 28.1738 -136.1212 -19.7231 72.6029 12.6148 8.8885 124.1226 -2.2161 3.1592 -1.5250 -53.8430 7.0678 92.7108 -3.4406 35.5645 -7.5198 -0.9363 -15.7157 -4.0707 0.7751 -6.8203 11.7598 -35.9901 -17.7706 74.7164 1.3629 43.9583 -5.4103 -2.6258 2.7589 1.1884 1.3424 -11.6975 2.7485 
